<?xml version="1.0" encoding="UTF-8"?>
<svg width="211px" height="105px" viewBox="0 0 211 105" version="1.1" xmlns="http://www.w3.org/2000/svg" xmlns:xlink="http://www.w3.org/1999/xlink">
    <!-- Generator: Sketch 54.1 (76490) - https://sketchapp.com/ -->
    <title>Combined Shape</title>
    <desc>Created with Sketch.</desc>
    <g id="Page-1" stroke="none" stroke-width="1" fill="none" fill-rule="evenodd">
        <path d="M15.615,73.021 C16.578,72.367 17.477,73.927 16.524,74.576 C12.995,76.971 6.636,78.796 2.653,76.43 C-0.549,74.527 0.223,70.329 0.966,67.255 C4.453,52.83 12.119,40.089 21.684,28.842 C25.894,23.893 38.484,8.216 46.743,14.024 C50.555,16.705 52.41,21.493 53.542,25.851 C55.481,33.314 56.147,41.136 56.025,48.833 C55.819,61.827 53.206,74.206 50.106,86.779 C49.02,91.184 48.043,95.748 46.351,99.973 C45.803,101.343 45.255,102.92 43.973,103.774 C40.54,106.06 40.017,97.166 40.198,96.014 C41.006,90.854 43.203,85.988 45.449,81.31 C47.585,76.858 49.445,71.897 52.146,67.76 C54.448,64.234 63.345,51.291 68.913,54.448 C71.201,55.746 70.873,60.701 70.735,62.768 C70.616,64.558 70.463,66.378 70.075,68.134 C69.767,69.53 68.728,71.384 68.883,72.811 C68.826,72.281 73.338,68.4 74.23,67.589 C75.201,66.707 76.203,65.84 77.287,65.098 C79.045,63.895 81.379,62.391 83.625,62.505 C90.383,62.849 88.424,72.861 87.682,77.045 C87.48,78.187 85.75,77.7 85.947,76.566 C86.932,70.879 88.026,65.206 89.227,59.561 C90.78,52.263 92.056,44.297 95.353,37.531 C98.984,30.08 103.929,23.134 109.081,16.668 C113.727,10.836 119.07,3.774 126.029,0.555 C127.075,0.071 127.99,1.623 126.937,2.11 C119.543,5.529 113.691,13.477 108.911,19.799 C104.383,25.789 99.595,32.172 96.598,39.11 C91.546,50.806 89.845,64.556 87.681,77.046 C87.103,76.886 86.525,76.726 85.946,76.567 C86.518,73.334 88.481,61.965 81.613,64.74 C77.776,66.291 75.285,69.282 72.423,72.091 C71.433,73.062 68.445,76.226 67.256,73.722 C66.238,71.581 68.545,67.167 68.759,64.937 C68.992,62.511 69.392,59.491 68.54,57.148 C67.388,53.976 62.888,58.256 61.763,59.274 C57.357,63.258 53.87,67.799 51.369,73.186 C48.849,78.614 45.867,83.885 43.829,89.525 C42.56,93.035 40.356,98.52 42.945,101.941 C43.501,102.675 45.95,95.5 46.179,94.687 C47.701,89.309 48.984,83.864 50.241,78.42 C53.261,65.34 55.099,52.102 53.862,38.654 C53.365,33.252 51.725,13.719 42.705,14.765 C34.081,15.765 26.306,25.844 21.318,32.11 C15.009,40.036 8.531,49.058 5.336,58.786 C4.417,61.583 -0.25,71.899 2.955,74.471 C6.298,77.155 12.493,75.141 15.615,73.021 Z M106.157,71.984 C106.602,73.056 104.859,73.519 104.42,72.463 C103.815,71.005 104.299,68.955 104.924,67.611 C106.71,63.768 109.228,60.406 110.434,56.266 C112.676,48.57 102.262,59.605 109.62,57.431 C113.056,56.415 116.465,55.251 119.966,54.474 C124.773,53.407 132.427,51.801 135.996,56.445 C137.814,58.811 142.435,68.233 136.812,69.78 C131.424,71.262 134.404,59.624 135.139,57.869 C137.819,51.471 142.309,46.427 147.437,41.88 C149.849,39.742 166.974,23.297 170.37,27.478 C171.095,28.37 169.829,29.652 169.097,28.75 C167.061,26.243 146.043,45.395 143.839,47.797 C140.825,51.083 137.788,55.084 136.484,59.436 C135.913,61.344 135.292,63.555 135.394,65.547 C137.087,67.243 137.811,67.008 137.566,64.841 C137.553,63.195 137.156,61.641 136.378,60.18 C131.555,52.135 121.639,55.664 114.306,57.895 C112.11,58.563 105.525,61.882 104.365,58.244 C103.549,55.687 107.83,51.861 109.85,51.114 C113.11,49.908 113.144,53.409 112.482,55.68 C111.661,58.502 110.539,61.309 109.081,63.868 C107.823,66.075 105.04,69.288 106.157,71.984 Z M156.123,57.537 C155.318,58.375 154.047,57.101 154.849,56.267 C155.97,55.097 157.219,53.859 158.073,52.481 C159.114,52.292 159.175,52.515 158.257,53.151 C157.865,53.679 157.474,54.208 157.082,54.736 C155.863,56.182 156.282,57.65 158.34,59.14 C163.64,57.73 168.159,54.556 173.067,52.241 C174.2,51.707 175.456,51.354 176.204,52.541 C176.555,53.098 176.218,54.027 176.046,54.564 C174.69,58.789 179.962,55.222 181.474,54.388 C183.893,53.054 188.124,49.766 191.159,50.728 C193.343,51.42 190.806,55.081 193.865,52.962 C196.748,50.965 199.59,48.37 203.147,47.657 C205.029,47.28 207.962,46.306 209.809,47.146 C210.618,47.513 210.226,48.894 209.355,48.823 C208.554,48.757 208.209,48.195 208.148,47.449 C208.055,46.291 209.856,46.3 209.949,47.449 C209.751,47.307 209.553,47.165 209.355,47.022 C209.204,47.581 209.052,48.14 208.901,48.699 C207.302,47.972 202.006,49.685 200.096,50.831 C198.243,51.944 196.627,53.424 194.773,54.515 C193.781,55.1 190.867,56.245 190.361,54.405 C189.432,51.03 185.935,53.982 183.927,55.089 C181.815,56.254 179.303,58.197 176.834,58.537 C174.958,58.796 173.777,58.269 173.776,56.214 C173.774,53.667 175.321,52.979 171.946,54.803 C168.93,56.432 165.936,58.079 162.81,59.491 C161.116,60.255 156.757,62.288 154.927,60.471 C152.302,57.866 156.562,49.057 159.949,50.538 C160.235,50.663 160.387,51.025 160.395,51.315 C160.452,53.597 157.555,56.042 156.123,57.537 Z" id="Combined-Shape" fill="#000000" fill-rule="nonzero"></path>
    </g>
</svg>