<?xml version="1.0" encoding="UTF-8"?>
<svg width="210px" height="104px" viewBox="0 0 210 104" version="1.1" xmlns="http://www.w3.org/2000/svg" xmlns:xlink="http://www.w3.org/1999/xlink">
    <!-- Generator: Sketch 54.1 (76490) - https://sketchapp.com/ -->
    <title>Combined Shape</title>
    <desc>Created with Sketch.</desc>
    <g id="Page-1" stroke="none" stroke-width="1" fill="none" fill-rule="evenodd">
        <path d="M15.3056297,72.5583705 C16.2686297,71.9043705 17.1676297,73.4643705 16.2146297,74.1133705 C12.6856297,76.5083705 6.32662975,78.3333705 2.34362975,75.9673705 C-0.858370254,74.0643705 -0.086370254,69.8663705 0.656629746,66.7923705 C4.14362975,52.3673705 11.8096297,39.6263705 21.3746297,28.3793705 C25.5846297,23.4303705 38.1746297,7.75337054 46.4336297,13.5613705 C50.2456297,16.2423705 52.1006297,21.0303705 53.2326297,25.3883705 C55.1716297,32.8513705 55.8376297,40.6733705 55.7156297,48.3703705 C55.5096297,61.3643705 52.8966297,73.7433705 49.7966297,86.3163705 C48.7106297,90.7213705 47.7336297,95.2853705 46.0416297,99.5103705 C45.4936297,100.880371 44.9456297,102.457371 43.6636297,103.311371 C40.2306297,105.597371 39.7076297,96.7033705 39.8886297,95.5513705 C40.6966297,90.3913705 42.8936297,85.5253705 45.1396297,80.8473705 C47.2756297,76.3953705 49.1356297,71.4343705 51.8366297,67.2973705 C54.1386297,63.7713705 63.0356297,50.8283705 68.6036297,53.9853705 C70.8916297,55.2833705 70.5636297,60.2383705 70.4256297,62.3053705 C70.3066297,64.0953705 70.1536297,65.9153705 69.7656297,67.6713705 C69.4576297,69.0673705 68.4186297,70.9213705 68.5736297,72.3483705 C68.5166297,71.8183705 73.0286297,67.9373705 73.9206297,67.1263705 C74.8916297,66.2443705 75.8936297,65.3773705 76.9776297,64.6353705 C78.7356297,63.4323705 81.0696297,61.9283705 83.3156297,62.0423705 C90.0736297,62.3863705 88.1146297,72.3983705 87.3726297,76.5823705 C87.1706297,77.7243705 85.4406297,77.2373705 85.6376297,76.1033705 C86.6226297,70.4163705 87.7166297,64.7433705 88.9176297,59.0983705 C90.4706297,51.8003705 91.7466297,43.8343705 95.0436297,37.0683705 C98.6746297,29.6173705 103.61963,22.6713705 108.77163,16.2053705 C113.41763,10.3733705 118.76063,3.31137054 125.71963,0.0923705372 C126.76563,-0.391629463 127.68063,1.16037054 126.62763,1.64737054 C119.23363,5.06637054 113.38163,13.0143705 108.60163,19.3363705 C104.07363,25.3263705 99.2856297,31.7093705 96.2886297,38.6473705 C91.2366297,50.3433705 89.5356297,64.0933705 87.3716297,76.5833705 C86.7936297,76.4233705 86.2156297,76.2633705 85.6366297,76.1043705 C86.2086297,72.8713705 88.1716297,61.5023705 81.3036297,64.2773705 C77.4666297,65.8283705 74.9756297,68.8193705 72.1136297,71.6283705 C71.1236297,72.5993705 68.1356297,75.7633705 66.9466297,73.2593705 C65.9286297,71.1183705 68.2356297,66.7043705 68.4496297,64.4743705 C68.6826297,62.0483705 69.0826297,59.0283705 68.2306297,56.6853705 C67.0786297,53.5133705 62.5786297,57.7933705 61.4536297,58.8113705 C57.0476297,62.7953705 53.5606297,67.3363705 51.0596297,72.7233705 C48.5396297,78.1513705 45.5576297,83.4223705 43.5196297,89.0623705 C42.2506297,92.5723705 40.0466297,98.0573705 42.6356297,101.478371 C43.1916297,102.212371 45.6406297,95.0373705 45.8696297,94.2243705 C47.3916297,88.8463705 48.6746297,83.4013705 49.9316297,77.9573705 C52.9516297,64.8773705 54.7896297,51.6393705 53.5526297,38.1913705 C53.0556297,32.7893705 51.4156297,13.2563705 42.3956297,14.3023705 C33.7716297,15.3023705 25.9966297,25.3813705 21.0086297,31.6473705 C14.6996297,39.5733705 8.22162975,48.5953705 5.02662975,58.3233705 C4.10762975,61.1203705 -0.559370254,71.4363705 2.64562975,74.0083705 C5.98862975,76.6923705 12.1836297,74.6783705 15.3056297,72.5583705 Z M105.84763,71.5213705 C106.29263,72.5933705 104.54963,73.0563705 104.11063,72.0003705 C103.50563,70.5423705 103.98963,68.4923705 104.61463,67.1483705 C106.40063,63.3053705 108.91863,59.9433705 110.12463,55.8033705 C112.36663,48.1073705 101.95263,59.1423705 109.31063,56.9683705 C112.74663,55.9523705 116.15563,54.7883705 119.65663,54.0113705 C124.46363,52.9443705 132.11763,51.3383705 135.68663,55.9823705 C137.50463,58.3483705 142.12563,67.7703705 136.50263,69.3173705 C131.11463,70.7993705 134.09463,59.1613705 134.82963,57.4063705 C137.50963,51.0083705 141.99963,45.9643705 147.12763,41.4173705 C149.53963,39.2793705 166.66463,22.8343705 170.06063,27.0153705 C170.78563,27.9073705 169.51963,29.1893705 168.78763,28.2873705 C166.75163,25.7803705 145.73363,44.9323705 143.52963,47.3343705 C140.51563,50.6203705 137.47863,54.6213705 136.17463,58.9733705 C135.60363,60.8813705 134.98263,63.0923705 135.08463,65.0843705 C136.77763,66.7803705 137.50163,66.5453705 137.25663,64.3783705 C137.24363,62.7323705 136.84663,61.1783705 136.06863,59.7173705 C131.24563,51.6723705 121.32963,55.2013705 113.99663,57.4323705 C111.80063,58.1003705 105.21563,61.4193705 104.05563,57.7813705 C103.23963,55.2243705 107.52063,51.3983705 109.54063,50.6513705 C112.80063,49.4453705 112.83463,52.9463705 112.17263,55.2173705 C111.35163,58.0393705 110.22963,60.8463705 108.77163,63.4053705 C107.51363,65.6123705 104.73063,68.8253705 105.84763,71.5213705 Z M155.81363,57.0743705 C155.00863,57.9123705 153.73763,56.6383705 154.53963,55.8043705 C155.66063,54.6343705 156.90963,53.3963705 157.76363,52.0183705 C158.80463,51.8293705 158.86563,52.0523705 157.94763,52.6883705 C157.55563,53.2163705 157.16463,53.7453705 156.77263,54.2733705 C155.55363,55.7193705 155.97263,57.1873705 158.03063,58.6773705 C163.33063,57.2673705 167.84963,54.0933705 172.75763,51.7783705 C173.89063,51.2443705 175.14663,50.8913705 175.89463,52.0783705 C176.24563,52.6353705 175.90863,53.5643705 175.73663,54.1013705 C174.38063,58.3263705 179.65263,54.7593705 181.16463,53.9253705 C183.58363,52.5913705 187.81463,49.3033705 190.84963,50.2653705 C193.03363,50.9573705 190.49663,54.6183705 193.55563,52.4993705 C196.43863,50.5023705 199.28063,47.9073705 202.83763,47.1943705 C204.71963,46.8173705 207.65263,45.8433705 209.49963,46.6833705 C210.30863,47.0503705 209.91663,48.4313705 209.04563,48.3603705 C208.24463,48.2943705 207.89963,47.7323705 207.83863,46.9863705 C207.74563,45.8283705 209.54663,45.8373705 209.63963,46.9863705 C209.44163,46.8443705 209.24363,46.7023705 209.04563,46.5593705 C208.89463,47.1183705 208.74263,47.6773705 208.59163,48.2363705 C206.99263,47.5093705 201.69663,49.2223705 199.78663,50.3683705 C197.93363,51.4813705 196.31763,52.9613705 194.46363,54.0523705 C193.47163,54.6373705 190.55763,55.7823705 190.05163,53.9423705 C189.12263,50.5673705 185.62563,53.5193705 183.61763,54.6263705 C181.50563,55.7913705 178.99363,57.7343705 176.52463,58.0743705 C174.64863,58.3333705 173.46763,57.8063705 173.46663,55.7513705 C173.46463,53.2043705 175.01163,52.5163705 171.63663,54.3403705 C168.62063,55.9693705 165.62663,57.6163705 162.50063,59.0283705 C160.80663,59.7923705 156.44763,61.8253705 154.61763,60.0083705 C151.99263,57.4033705 156.25263,48.5943705 159.63963,50.0753705 C159.92563,50.2003705 160.07763,50.5623705 160.08563,50.8523705 C160.14263,53.1343705 157.24563,55.5793705 155.81363,57.0743705 Z" id="Combined-Shape" fill="#FFFFFF" fill-rule="nonzero"></path>
    </g>
</svg>