<svg xmlns="http://www.w3.org/2000/svg" xmlns:xlink="http://www.w3.org/1999/xlink" width="20px" height="25px" viewBox="0 0 20 25"><path d="M15.2259527,19.8127448 C14.2070021,20.8883037 13.118253,21.8681779 12.0291768,22.7354053 C11.6473986,23.0394139 11.2921737,23.3081096 10.9722093,23.539195 C10.777224,23.6800177 10.6351454,23.7784203 10.5547002,23.8320504 L10,24.2018506 L9.4452998,23.8320504 C9.36485462,23.7784203 9.22277597,23.6800177 9.0277907,23.539195 C8.70782632,23.3081096 8.35260143,23.0394139 7.97082322,22.7354053 C6.88174698,21.8681779 5.7929979,20.8883037 4.77404732,19.8127448 C1.80240157,16.6760076 0,13.3716047 0,10.0000001 C8.22968405e-08,4.47715257 4.47715254,1.3411045e-07 10,1.34110451e-07 C15.5228475,1.34110451e-07 19.9999999,4.47715257 20,10.0000001 C20,13.3716047 18.1975984,16.6760076 15.2259527,19.8127448 Z M10.7833232,21.170845 C11.803622,20.3583849 12.8242479,19.4398215 13.7740473,18.4372555 C16.4274016,15.6364927 18,12.7533955 18,10.0000001 C17.9999999,5.58172208 14.418278,2.00000013 10,2.00000013 C5.58172203,2.00000013 2.00000007,5.58172208 2,10.0000001 C2,12.7533955 3.57259843,15.6364927 6.22595268,18.4372555 C7.1757521,19.4398215 8.19637802,20.3583849 9.21667678,21.170845 C9.49517108,21.392609 9.75768846,21.5936104 10,21.7726169 C10.2423115,21.5936104 10.5048289,21.392609 10.7833232,21.170845 Z M10,14 C7.790861,14 6,12.209139 6,10 C6,7.790861 7.790861,6 10,6 C12.209139,6 14,7.790861 14,10 C14,12.209139 12.209139,14 10,14 Z M10,12 C11.1045695,12 12,11.1045695 12,10 C12,8.8954305 11.1045695,8 10,8 C8.8954305,8 8,8.8954305 8,10 C8,11.1045695 8.8954305,12 10,12 Z"></path></svg>