<svg xmlns="http://www.w3.org/2000/svg" xmlns:xlink="http://www.w3.org/1999/xlink" width="64px" height="64px" viewBox="0 0 64 64"><g stroke="none" stroke-width="1" fill="none" fill-rule="evenodd" stroke-linejoin="round"><g transform="translate(1.000000, 1.000000)" stroke="currentColor" stroke-width="2"><path d="M14,62 L4,62 C1.790861,62 2.22044605e-16,60.209139 0,58 L0,12 L46,12 L46,28" ></path><path d="M35,16 L35,4 C35,1.790861 33.209139,2.22044605e-16 31,0 L15,0 C12.790861,-1.11022302e-16 11,1.790861 11,4 L11,22" ></path><path d="M0,18 L25,18" ></path><circle  cx="11" cy="24" r="2"></circle><path d="M62,58 C62,60.209139 60.209139,62 58,62 L20,62 C17.790861,62 16,60.209139 16,58 L16,28 L62,28 L62,58 Z" ></path><path d="M51,38 L51,23 C51,20.790861 49.209139,19 47,19 L31,19 C28.790861,19 27,20.790861 27,23 L27,38" ></path><path d="M16,34 L62,34" ></path><circle  cx="27" cy="40" r="2"></circle><circle  cx="51" cy="40" r="2"></circle><path d="M4,53 L4,57 C3.99420967,57.2669495 4.09770605,57.5246816 4.28651224,57.7134878 C4.47531843,57.902294 4.73305052,58.0057903 5,58 L8,58" ></path><path d="M38,40 L40,40" ></path><path d="M42,40 L44,40" ></path><path d="M34,40 L36,40" ></path></g></g></svg>
