<svg xmlns="http://www.w3.org/2000/svg" xmlns:xlink="http://www.w3.org/1999/xlink" width="64px" height="64px" viewBox="0 0 64 64"><g stroke="none" stroke-width="1" fill="none" fill-rule="evenodd" stroke-linejoin="round"><g transform="translate(1.000000, 1.000000)" stroke="currentColor" stroke-width="2"><path d="M62,20 L62,14 C62,12.448 61.552,12 61,12 L1,12 C0.44771525,12 0,12.4477153 0,13 L0,20 L62,20 Z"></path><path d="M58,20 L58,56 C58,57.1045695 57.1045695,58 56,58 L36,58"></path><path d="M4,20 L4,42"></path><path d="M21,20 L21,12"></path><path d="M41,20 L41,12"></path><path d="M39,44 L39,20"></path><path d="M23,42 L23,20"></path><path d="M4,25 L20,25"></path><path d="M58,25 L42,25"></path><path d="M31,12 L31,5 C31,5 31,0 26,0 L14,0 C14,0 14,12 31,12 Z"></path><path d="M31,12 L31,5 C31,5 31,0 36,0 L48,0 C48,0 48,12 31,12 Z"></path><path d="M28,62 L2,62 C0.8954305,62 2.22044605e-16,61.1045695 0,60 L0,44 C-1.11022302e-16,42.8954305 0.8954305,42 2,42 L28,42 L38,52 L28,62 Z"></path><path d="M38,52 L43,52 C43.5338153,52.0112942 44.0491116,51.8042094 44.4266605,51.4266605 C44.8042094,51.0491116 45.0112942,50.5338153 45,50 L45,45 C44.9887058,44.4661847 45.1957906,43.9508884 45.5733395,43.5733395 C45.9508884,43.1957906 46.4661847,42.9887058 47,43 L50,43 C50.5338153,42.9887058 51.0491116,43.1957906 51.4266605,43.5733395 C51.8042094,43.9508884 52.0112942,44.4661847 52,45 L52,51"></path><path d="M52,53 L52,55"></path><circle cx="30" cy="52" r="2"></circle><rect x="4" y="46" width="20" height="4"></rect><path d="M3,54 L5,54"></path><path d="M7,54 L9,54"></path><path d="M3,58 L25,58"></path><path d="M25,54 L23,54"></path><polyline points="12 29 8 29 8 33"></polyline></g></g></svg>
