<svg xmlns="http://www.w3.org/2000/svg" xmlns:xlink="http://www.w3.org/1999/xlink" width="50px" height="8px" viewBox="0 0 50 8"><path d="M43.8559745,3.0387609 L43.8559745,0.839218433 C43.8503957,0.531340097 44.0242223,0.2506013 44.2956561,0.129110528 C44.4144881,0.0554642381 44.5479741,0.0112891909 44.685796,3.99680289e-14 C44.8474869,0.0092610397 45.0056033,0.0532149593 45.1502484,0.129110528 L49.6399545,3.16320794 C49.8682741,3.32108583 50.0055358,3.587704 50.0055358,3.87331584 C50.0055358,4.15892769 49.8682741,4.42554586 49.6399545,4.58342375 L45.1502484,7.61752116 C44.8864318,7.77895738 44.5594727,7.77895738 44.2956561,7.61752116 C44.0242223,7.49603039 43.8503957,7.21529159 43.8559745,6.90741326 L43.8559745,4.97541883 L0.928904706,4.97541883 C0.415884803,4.97541883 2.13162821e-14,4.54188318 2.13162821e-14,4.00708986 C2.13162821e-14,3.47229655 0.415884803,3.0387609 0.928904706,3.0387609 L43.8559745,3.0387609 Z"></path></svg>